HIERARCHY
ROOT hip
{
  OFFSET 0.0 0.0 0.0
  CHANNELS 6 Xposition Yposition Zposition Zrotation Yrotation Xrotation
  JOINT abdomen
  {
    OFFSET 0.0 20.6881 -0.73152
    CHANNELS 3 Zrotation Xrotation Yrotation
    JOINT chest
    {
      OFFSET 0.0 11.7043 -0.48768
      CHANNELS 3 Zrotation Xrotation Yrotation
      JOINT neck
      {
        OFFSET 0.0 22.1894 -2.19456
        CHANNELS 3 Zrotation Xrotation Yrotation
        JOINT head
        {
          OFFSET -0.24384 7.07133 1.2192
          CHANNELS 3 Zrotation Xrotation Yrotation
          JOINT leftEye
          {
            OFFSET 4.14528 8.04674 8.04672
            CHANNELS 3 Zrotation Xrotation Yrotation
            End Site
            {
              OFFSET 1.0 0.0 0.0
            }
          }
          JOINT rightEye
          {
            OFFSET -3.6576 8.04674 8.04672
            CHANNELS 3 Zrotation Xrotation Yrotation
            End Site
            {
              OFFSET 1.0 0.0 0.0
            }
          }
        }
      }
      JOINT rCollar
      {
        OFFSET -2.68224 19.2634 -4.8768
        CHANNELS 3 Zrotation Xrotation Yrotation
        JOINT rShldr
        {
          OFFSET -8.77824 -1.95073 1.46304
          CHANNELS 3 Zrotation Xrotation Yrotation
          JOINT rForeArm
          {
            OFFSET -28.1742 -1.7115 0.48768
            CHANNELS 3 Zrotation Xrotation Yrotation
            JOINT rHand
            {
              OFFSET -22.5879 0.773209 7.07136
              CHANNELS 3 Zrotation Xrotation Yrotation
              JOINT rThumb1
              {
                OFFSET -1.2192 -0.487915 3.41376
                CHANNELS 3 Zrotation Xrotation Yrotation
                JOINT rThumb2
                {
                  OFFSET -3.37035 -0.52449 3.41376
                  CHANNELS 3 Zrotation Xrotation Yrotation
                  End Site
                  {
                    OFFSET -1.78271 -1.18214 1.43049
                  }
                }
              }
              JOINT rIndex1
              {
                OFFSET -7.75947 0.938293 5.60832
                CHANNELS 3 Zrotation Xrotation Yrotation
                JOINT rIndex2
                {
                  OFFSET -2.54057 -0.884171 1.56538
                  CHANNELS 3 Zrotation Xrotation Yrotation
                  End Site
                  {
                    OFFSET -1.62519 -0.234802 1.16502
                  }
                }
              }
              JOINT rMid1
              {
                OFFSET -8.24714 1.18213 3.41376
                CHANNELS 3 Zrotation Xrotation Yrotation
                JOINT rMid2
                {
                  OFFSET -3.10165 -0.590103 1.0647
                  CHANNELS 3 Zrotation Xrotation Yrotation
                  End Site
                  {
                    OFFSET -2.48547 -0.328903 0.83742
                  }
                }
              }
              JOINT rRing1
              {
                OFFSET -8.82822 0.546677 1.51678
                CHANNELS 3 Zrotation Xrotation Yrotation
                JOINT rRing2
                {
                  OFFSET -2.60934 -0.819778 -0.0198488
                  CHANNELS 3 Zrotation Xrotation Yrotation
                  End Site
                  {
                    OFFSET -2.33842 -0.294052 0.168128
                  }
                }
              }
              JOINT rPinky1
              {
                OFFSET -8.27202 -0.0477905 -0.4584
                CHANNELS 3 Zrotation Xrotation Yrotation
                JOINT rPinky2
                {
                  OFFSET -1.82734 -0.647385 -0.700984
                  CHANNELS 3 Zrotation Xrotation Yrotation
                  End Site
                  {
                    OFFSET -1.69225 -0.51767 -0.607171
                  }
                }
              }
            }
          }
        }
      }
      JOINT lCollar
      {
        OFFSET 2.68224 19.2634 -4.8768
        CHANNELS 3 Zrotation Xrotation Yrotation
        JOINT lShldr
        {
          OFFSET 8.77824 -1.95073 1.46304
          CHANNELS 3 Zrotation Xrotation Yrotation
          JOINT lForeArm
          {
            OFFSET 28.1742 -1.7115 0.48768
            CHANNELS 3 Zrotation Xrotation Yrotation
            JOINT lHand
            {
              OFFSET 22.5879 0.773209 7.07136
              CHANNELS 3 Zrotation Xrotation Yrotation
              JOINT lThumb1
              {
                OFFSET 1.2192 -0.487915 3.41376
                CHANNELS 3 Zrotation Xrotation Yrotation
                JOINT lThumb2
                {
                  OFFSET 3.37035 -0.52449 3.41376
                  CHANNELS 3 Zrotation Xrotation Yrotation
                  End Site
                  {
                    OFFSET 1.78271 -1.18214 1.43049
                  }
                }
              }
              JOINT lIndex1
              {
                OFFSET 7.75947 0.938293 5.60832
                CHANNELS 3 Zrotation Xrotation Yrotation
                JOINT lIndex2
                {
                  OFFSET 2.54057 -0.884171 1.56538
                  CHANNELS 3 Zrotation Xrotation Yrotation
                  End Site
                  {
                    OFFSET 1.62519 -0.234802 1.16502
                  }
                }
              }
              JOINT lMid1
              {
                OFFSET 8.24714 1.18213 3.41376
                CHANNELS 3 Zrotation Xrotation Yrotation
                JOINT lMid2
                {
                  OFFSET 3.10165 -0.590103 1.0647
                  CHANNELS 3 Zrotation Xrotation Yrotation
                  End Site
                  {
                    OFFSET 2.48547 -0.328903 0.83742
                  }
                }
              }
              JOINT lRing1
              {
                OFFSET 8.82822 0.546677 1.51678
                CHANNELS 3 Zrotation Xrotation Yrotation
                JOINT lRing2
                {
                  OFFSET 2.60934 -0.819778 -0.0198488
                  CHANNELS 3 Zrotation Xrotation Yrotation
                  End Site
                  {
                    OFFSET 2.33842 -0.294052 0.168128
                  }
                }
              }
              JOINT lPinky1
              {
                OFFSET 8.27202 -0.0477905 -0.4584
                CHANNELS 3 Zrotation Xrotation Yrotation
                JOINT lPinky2
                {
                  OFFSET 1.82734 -0.647385 -0.700984
                  CHANNELS 3 Zrotation Xrotation Yrotation
                  End Site
                  {
                    OFFSET 1.69225 -0.51767 -0.607171
                  }
                }
              }
            }
          }
        }
      }
    }
  }
  JOINT rButtock
  {
    OFFSET -8.77824 4.35084 1.2192
    CHANNELS 3 Zrotation Xrotation Yrotation
    JOINT rThigh
    {
      OFFSET 0.0 -1.70687 -2.19456
      CHANNELS 3 Zrotation Xrotation Yrotation
      JOINT rShin
      {
        OFFSET 0.0 -36.8199 0.73152
        CHANNELS 3 Zrotation Xrotation Yrotation
        JOINT rFoot
        {
          OFFSET 0.73152 -45.1104 -5.12064
          CHANNELS 3 Zrotation Xrotation Yrotation
          End Site
          {
            OFFSET -1.1221 -3.69964 12.103
          }
        }
      }
    }
  }
  JOINT lButtock
  {
    OFFSET 8.77824 4.35084 1.2192
    CHANNELS 3 Zrotation Xrotation Yrotation
    JOINT lThigh
    {
      OFFSET 0.0 -1.70687 -2.19456
      CHANNELS 3 Zrotation Xrotation Yrotation
      JOINT lShin
      {
        OFFSET 0.0 -36.8199 0.73152
        CHANNELS 3 Zrotation Xrotation Yrotation
        JOINT lFoot
        {
          OFFSET -0.73152 -45.1104 -5.12064
          CHANNELS 3 Zrotation Xrotation Yrotation
          End Site
          {
            OFFSET 1.1221 -3.69964 12.103
          }
        }
      }
    }
  }
}
MOTION
Frames: 4
Frame Time: 0.00833333
0.0 83.9079 0.0 -3.4399 9.0891 5.4007 7.19734 5.38265 2.73856 -1.13057 -6.99168 0.803999 4.35689 -5.27325 -2.01764 -8.33056 -11.3966 -6.49875 -0.0 0.0 0.0 -0.0 0.0 0.0 0.0 0.0 0.0 0.0 0.0 0.0 0.0 0.0 0.0 -0.00636703 -2.2777 -0.320281 -2.26781e-09 4.99094e-09 3.89688e-10 -3.92232e-09 8.63939e-09 6.75413e-10 -2.26781e-09 4.99094e-09 3.89685e-10 7.73091 5.47488 0.417314 -2.26781e-09 4.99094e-09 3.89701e-10 2.90554 0.965183 0.102902 -2.26781e-09 4.99094e-09 3.8969e-10 10.2786 0.731801 0.0259123 -2.26781e-09 4.99094e-09 3.89701e-10 2.22167 -0.733487 -0.20892 0.0 0.0 0.0 0.0 0.0 0.0 0.0 0.0 0.0 0.107126 -9.29394 1.31787 -1.70391e-09 -2.83687e-09 2.0141e-09 -2.96101e-09 -4.92118e-09 3.47844e-09 -1.70391e-09 -2.83687e-09 2.01412e-09 -7.73091 5.47488 -0.417314 -1.70391e-09 -2.83687e-09 2.0141e-09 -2.90554 0.965183 -0.102902 -1.70392e-09 -2.83687e-09 2.01411e-09 -10.2786 0.731801 -0.0259123 -1.70391e-09 -2.83687e-09 2.0141e-09 -2.22167 -0.733487 0.20892 -2.03217e-16 0.0 -3.88251e-19 -0.615683 -15.8117 -20.4451 -0.107954 24.6922 0.469529 -7.3315 -4.72403 -38.9222 2.03217e-16 0.0 3.88251e-19 25.7527 -24.6656 30.5714 0.254551 35.8832 -0.574751 3.52129 -1.16761 30.5964
0.0039999999999995595 83.9604 0.32499999999998863 -3.4702 8.7742 5.4532 7.23809 5.39955 2.8945 -1.2301 -6.92306 0.841929 4.38841 -5.40598 -1.94727 -8.42267 -11.3377 -6.38482 -0.0 0.0 0.0 -0.0 0.0 0.0 0.0 0.0 0.0 0.0 0.0 0.0 0.0 0.0 0.0 -0.0070556 -2.3959 -0.336921 -1.55099e-09 3.20864e-09 6.08276e-10 -2.68279e-09 5.55617e-09 1.05277e-09 -1.55099e-09 3.20864e-09 6.08266e-10 7.73091 5.47488 0.417314 -1.55099e-09 3.20864e-09 6.08285e-10 2.90554 0.965183 0.102902 -1.55099e-09 3.20864e-09 6.08277e-10 10.2786 0.731801 0.0259123 -1.551e-09 3.20864e-09 6.08286e-10 2.22167 -0.733487 -0.20892 0.0 0.0 0.0 0.0 0.0 0.0 0.0 0.0 0.0 0.106456 -9.26467 1.31365 -1.55587e-09 -2.29106e-09 1.19304e-09 -2.69997e-09 -3.97232e-09 2.05852e-09 -1.55587e-09 -2.29107e-09 1.19306e-09 -7.73091 5.47488 -0.417314 -1.55587e-09 -2.29107e-09 1.19304e-09 -2.90554 0.965183 -0.102902 -1.55587e-09 -2.29107e-09 1.19304e-09 -10.2786 0.731801 -0.0259123 -1.55587e-09 -2.29107e-09 1.19304e-09 -2.22167 -0.733487 0.20892 -2.03217e-16 0.0 -3.88251e-19 -0.491116 -15.5001 -20.181 -0.106897 24.3564 0.461927 -7.26023 -4.65506 -38.8829 2.03217e-16 0.0 3.88251e-19 25.6424 -24.8291 29.8577 0.236546 34.7819 -0.54 3.47706 -1.03707 31.1695
0.013799999999999812 84.0097 0.6539999999999964 -3.5138 8.4469 5.5025 7.30387 5.41928 3.04495 -1.32356 -6.83677 0.879636 4.43654 -5.58064 -1.85373 -8.53619 -11.2588 -6.23455 -0.0 0.0 0.0 -0.0 0.0 0.0 0.0 0.0 0.0 0.0 0.0 0.0 0.0 0.0 0.0 -0.00770429 -2.50526 -0.352318 -5.23046e-10 7.91203e-10 9.03824e-10 -9.05213e-10 1.37401e-09 1.56339e-09 -5.23048e-10 7.91207e-10 9.03804e-10 7.73091 5.47488 0.417314 -5.23048e-10 7.91203e-10 9.03826e-10 2.90554 0.965183 0.102902 -5.23042e-10 7.91203e-10 9.03823e-10 10.2786 0.731801 0.0259123 -5.2305e-10 7.91204e-10 9.0383e-10 2.22167 -0.733487 -0.20892 0.0 0.0 0.0 0.0 0.0 0.0 0.0 0.0 0.0 0.105985 -9.24368 1.31062 -1.26399e-09 -1.48097e-09 8.17819e-11 -2.18837e-09 -2.56455e-09 1.36906e-10 -1.26399e-09 -1.48097e-09 8.17985e-11 -7.73091 5.47488 -0.417314 -1.26399e-09 -1.48097e-09 8.17794e-11 -2.90554 0.965183 -0.102902 -1.26399e-09 -1.48097e-09 8.17834e-11 -10.2786 0.731801 -0.0259123 -1.26398e-09 -1.48097e-09 8.17767e-11 -2.22167 -0.733487 0.20892 -2.03217e-16 0.0 -3.88251e-19 -0.351292 -15.1886 -19.906 -0.105887 24.0145 0.453403 -7.18656 -4.58575 -38.8365 2.03217e-16 0.0 3.88251e-19 25.5634 -24.9806 29.1279 0.219827 33.7407 -0.507193 3.4488 -0.922824 31.84
0.030799999999999272 84.0549 0.9869999999999948 -3.5626 8.1157 5.5472 7.37707 5.43588 3.18727 -1.41177 -6.748 0.915691 4.48932 -5.7454 -1.75448 -8.65361 -11.1958 -6.07538 -0.0 0.0 0.0 -0.0 0.0 0.0 0.0 0.0 0.0 0.0 0.0 0.0 0.0 0.0 0.0 -0.00824563 -2.59294 -0.364665 5.33385e-10 -1.70107e-09 1.19643e-09 9.21747e-10 -2.93796e-09 2.06892e-09 5.33383e-10 -1.70107e-09 1.1964e-09 7.73091 5.47488 0.417314 5.33383e-10 -1.70107e-09 1.19643e-09 2.90554 0.965183 0.102902 5.3339e-10 -1.70107e-09 1.19643e-09 10.2786 0.731801 0.0259123 5.33381e-10 -1.70107e-09 1.19643e-09 2.22167 -0.733487 -0.20892 0.0 0.0 0.0 0.0 0.0 0.0 0.0 0.0 0.0 0.105232 -9.21113 1.30593 -9.57142e-10 -6.45232e-10 -1.06889e-09 -1.65065e-09 -1.11219e-09 -1.85292e-09 -9.57144e-10 -6.45231e-10 -1.06888e-09 -7.73091 5.47488 -0.417314 -9.5714e-10 -6.45231e-10 -1.06889e-09 -2.90554 0.965183 -0.102902 -9.57144e-10 -6.4523e-10 -1.06889e-09 -10.2786 0.731801 -0.0259123 -9.57139e-10 -6.45229e-10 -1.0689e-09 -2.22167 -0.733487 0.20892 -2.03217e-16 0.0 -3.88251e-19 -0.215075 -14.8792 -19.6281 -0.104981 23.6765 0.444403 -7.11078 -4.51421 -38.7881 2.03217e-16 0.0 3.88251e-19 25.4916 -25.1257 28.3797 0.204486 32.7596 -0.477075 3.44621 -0.845904 32.5603
